<mxfile host="app.diagrams.net" modified="2023-08-26T14:48:00.362Z" agent="Mozilla/5.0 (Windows NT 10.0; Win64; x64) AppleWebKit/537.36 (KHTML, like Gecko) Chrome/113.0.0.0 Safari/537.36" etag="WoJdHQwl7NRcDARAHUBt" version="21.6.9" type="github">
  <diagram name="第 1 页" id="S2cEnapg9zKAHFzMdJ3t">
    <mxGraphModel dx="1434" dy="1943" grid="1" gridSize="10" guides="1" tooltips="1" connect="1" arrows="1" fold="1" page="1" pageScale="1" pageWidth="827" pageHeight="1169" math="0" shadow="0">
      <root>
        <mxCell id="0" />
        <mxCell id="1" parent="0" />
        <mxCell id="E-pBfT4AqJcc3kO5NynL-47" value="" style="rounded=1;whiteSpace=wrap;html=1;" vertex="1" parent="1">
          <mxGeometry x="680" y="290" width="137.5" height="250" as="geometry" />
        </mxCell>
        <mxCell id="E-pBfT4AqJcc3kO5NynL-38" value="" style="rounded=1;whiteSpace=wrap;html=1;" vertex="1" parent="1">
          <mxGeometry x="380" y="290" width="137.5" height="250" as="geometry" />
        </mxCell>
        <mxCell id="E-pBfT4AqJcc3kO5NynL-4" value="" style="rounded=1;whiteSpace=wrap;html=1;" vertex="1" parent="1">
          <mxGeometry x="82.5" y="290" width="137.5" height="250" as="geometry" />
        </mxCell>
        <mxCell id="E-pBfT4AqJcc3kO5NynL-23" style="edgeStyle=orthogonalEdgeStyle;rounded=0;orthogonalLoop=1;jettySize=auto;html=1;exitX=0;exitY=0.7;exitDx=0;exitDy=0;curved=1;" edge="1" parent="1" source="E-pBfT4AqJcc3kO5NynL-1" target="E-pBfT4AqJcc3kO5NynL-2">
          <mxGeometry relative="1" as="geometry" />
        </mxCell>
        <mxCell id="E-pBfT4AqJcc3kO5NynL-24" value="&lt;b style=&quot;border-color: var(--border-color); font-size: 14px;&quot;&gt;Clone/Fetch&lt;/b&gt;" style="edgeLabel;html=1;align=center;verticalAlign=middle;resizable=0;points=[];" vertex="1" connectable="0" parent="E-pBfT4AqJcc3kO5NynL-23">
          <mxGeometry x="0.2522" y="31" relative="1" as="geometry">
            <mxPoint as="offset" />
          </mxGeometry>
        </mxCell>
        <mxCell id="E-pBfT4AqJcc3kO5NynL-58" value="&lt;font style=&quot;font-size: 14px;&quot;&gt;&lt;b&gt;Clone/Fetch&lt;/b&gt;&lt;/font&gt;" style="edgeStyle=orthogonalEdgeStyle;rounded=0;orthogonalLoop=1;jettySize=auto;html=1;exitX=1.006;exitY=0.84;exitDx=0;exitDy=0;entryX=0.15;entryY=0.05;entryDx=0;entryDy=0;entryPerimeter=0;curved=1;exitPerimeter=0;" edge="1" parent="1" source="E-pBfT4AqJcc3kO5NynL-1" target="E-pBfT4AqJcc3kO5NynL-50">
          <mxGeometry x="-0.0772" y="10" relative="1" as="geometry">
            <Array as="points">
              <mxPoint x="590" y="84" />
              <mxPoint x="590" y="323" />
            </Array>
            <mxPoint as="offset" />
          </mxGeometry>
        </mxCell>
        <mxCell id="E-pBfT4AqJcc3kO5NynL-1" value="远程仓库" style="shape=datastore;whiteSpace=wrap;html=1;fillColor=#ffe6cc;strokeColor=#d79b00;" vertex="1" parent="1">
          <mxGeometry x="407.5" width="90" height="100" as="geometry" />
        </mxCell>
        <mxCell id="E-pBfT4AqJcc3kO5NynL-56" style="rounded=0;orthogonalLoop=1;jettySize=auto;html=1;entryX=0.15;entryY=0.05;entryDx=0;entryDy=0;entryPerimeter=0;" edge="1" parent="1" target="E-pBfT4AqJcc3kO5NynL-41">
          <mxGeometry relative="1" as="geometry">
            <mxPoint x="432" y="100" as="sourcePoint" />
          </mxGeometry>
        </mxCell>
        <mxCell id="E-pBfT4AqJcc3kO5NynL-29" style="edgeStyle=orthogonalEdgeStyle;rounded=0;orthogonalLoop=1;jettySize=auto;html=1;exitX=0.85;exitY=0.05;exitDx=0;exitDy=0;exitPerimeter=0;curved=1;entryX=-0.003;entryY=0.84;entryDx=0;entryDy=0;entryPerimeter=0;" edge="1" parent="1" target="E-pBfT4AqJcc3kO5NynL-1">
          <mxGeometry relative="1" as="geometry">
            <mxPoint x="175.28" y="328" as="sourcePoint" />
            <mxPoint x="382.25" y="110" as="targetPoint" />
          </mxGeometry>
        </mxCell>
        <mxCell id="E-pBfT4AqJcc3kO5NynL-30" value="&lt;font style=&quot;font-size: 14px;&quot;&gt;Push&lt;/font&gt;" style="edgeLabel;html=1;align=center;verticalAlign=middle;resizable=0;points=[];fontSize=13;fontStyle=1" vertex="1" connectable="0" parent="E-pBfT4AqJcc3kO5NynL-29">
          <mxGeometry x="0.4647" y="7" relative="1" as="geometry">
            <mxPoint x="8" y="63" as="offset" />
          </mxGeometry>
        </mxCell>
        <mxCell id="E-pBfT4AqJcc3kO5NynL-33" style="edgeStyle=orthogonalEdgeStyle;rounded=0;orthogonalLoop=1;jettySize=auto;html=1;exitX=0.15;exitY=0.95;exitDx=0;exitDy=0;exitPerimeter=0;entryX=0.215;entryY=-0.018;entryDx=0;entryDy=0;entryPerimeter=0;" edge="1" parent="1" source="E-pBfT4AqJcc3kO5NynL-2" target="E-pBfT4AqJcc3kO5NynL-3">
          <mxGeometry relative="1" as="geometry" />
        </mxCell>
        <mxCell id="E-pBfT4AqJcc3kO5NynL-34" value="&lt;font style=&quot;font-size: 14px;&quot;&gt;&lt;b&gt;Checkout&lt;/b&gt;&lt;/font&gt;" style="edgeLabel;html=1;align=center;verticalAlign=middle;resizable=0;points=[];" vertex="1" connectable="0" parent="E-pBfT4AqJcc3kO5NynL-33">
          <mxGeometry x="-0.1666" y="1" relative="1" as="geometry">
            <mxPoint x="-23" as="offset" />
          </mxGeometry>
        </mxCell>
        <mxCell id="E-pBfT4AqJcc3kO5NynL-2" value="本地仓库" style="shape=datastore;whiteSpace=wrap;html=1;fillColor=#d5e8d4;strokeColor=#82b366;" vertex="1" parent="1">
          <mxGeometry x="125" y="320" width="60" height="60" as="geometry" />
        </mxCell>
        <mxCell id="E-pBfT4AqJcc3kO5NynL-3" value="工作区" style="image;aspect=fixed;html=1;points=[];align=center;fontSize=12;image=img/lib/azure2/compute/Workspaces.svg;" vertex="1" parent="1">
          <mxGeometry x="120" y="450" width="65" height="56.00000000000001" as="geometry" />
        </mxCell>
        <mxCell id="E-pBfT4AqJcc3kO5NynL-5" value="程序员1" style="sketch=0;aspect=fixed;pointerEvents=1;shadow=0;dashed=0;html=1;strokeColor=none;labelPosition=center;verticalLabelPosition=bottom;verticalAlign=top;align=center;shape=mxgraph.mscae.enterprise.user_permissions;fillColor=#0078D7;" vertex="1" parent="1">
          <mxGeometry x="127.75" y="560" width="47" height="50" as="geometry" />
        </mxCell>
        <mxCell id="E-pBfT4AqJcc3kO5NynL-6" value="" style="image;points=[];aspect=fixed;html=1;align=center;shadow=0;dashed=0;image=img/lib/allied_telesis/computer_and_terminals/Personal_Computer.svg;" vertex="1" parent="1">
          <mxGeometry x="95.28" y="260" width="32.47" height="44" as="geometry" />
        </mxCell>
        <mxCell id="E-pBfT4AqJcc3kO5NynL-36" value="" style="endArrow=classic;html=1;rounded=0;exitX=0.769;exitY=-0.054;exitDx=0;exitDy=0;exitPerimeter=0;" edge="1" parent="1" source="E-pBfT4AqJcc3kO5NynL-3">
          <mxGeometry width="50" height="50" relative="1" as="geometry">
            <mxPoint x="170" y="440" as="sourcePoint" />
            <mxPoint x="170" y="380" as="targetPoint" />
          </mxGeometry>
        </mxCell>
        <mxCell id="E-pBfT4AqJcc3kO5NynL-37" value="&lt;font style=&quot;font-size: 14px;&quot;&gt;&lt;b&gt;Commit&lt;/b&gt;&lt;/font&gt;" style="edgeLabel;html=1;align=center;verticalAlign=middle;resizable=0;points=[];" vertex="1" connectable="0" parent="E-pBfT4AqJcc3kO5NynL-36">
          <mxGeometry x="0.0146" y="3" relative="1" as="geometry">
            <mxPoint x="18" y="-3" as="offset" />
          </mxGeometry>
        </mxCell>
        <mxCell id="E-pBfT4AqJcc3kO5NynL-39" style="edgeStyle=orthogonalEdgeStyle;rounded=0;orthogonalLoop=1;jettySize=auto;html=1;exitX=0.15;exitY=0.95;exitDx=0;exitDy=0;exitPerimeter=0;entryX=0.215;entryY=-0.018;entryDx=0;entryDy=0;entryPerimeter=0;" edge="1" parent="1" source="E-pBfT4AqJcc3kO5NynL-41" target="E-pBfT4AqJcc3kO5NynL-42">
          <mxGeometry relative="1" as="geometry" />
        </mxCell>
        <mxCell id="E-pBfT4AqJcc3kO5NynL-40" value="&lt;font style=&quot;font-size: 14px;&quot;&gt;&lt;b&gt;Checkout&lt;/b&gt;&lt;/font&gt;" style="edgeLabel;html=1;align=center;verticalAlign=middle;resizable=0;points=[];" vertex="1" connectable="0" parent="E-pBfT4AqJcc3kO5NynL-39">
          <mxGeometry x="-0.1666" y="1" relative="1" as="geometry">
            <mxPoint x="-23" as="offset" />
          </mxGeometry>
        </mxCell>
        <mxCell id="E-pBfT4AqJcc3kO5NynL-57" style="rounded=0;orthogonalLoop=1;jettySize=auto;html=1;exitX=0.85;exitY=0.05;exitDx=0;exitDy=0;exitPerimeter=0;" edge="1" parent="1" source="E-pBfT4AqJcc3kO5NynL-41">
          <mxGeometry relative="1" as="geometry">
            <mxPoint x="474" y="100" as="targetPoint" />
          </mxGeometry>
        </mxCell>
        <mxCell id="E-pBfT4AqJcc3kO5NynL-41" value="本地仓库" style="shape=datastore;whiteSpace=wrap;html=1;fillColor=#d5e8d4;strokeColor=#82b366;" vertex="1" parent="1">
          <mxGeometry x="422.5" y="320" width="60" height="60" as="geometry" />
        </mxCell>
        <mxCell id="E-pBfT4AqJcc3kO5NynL-42" value="工作区" style="image;aspect=fixed;html=1;points=[];align=center;fontSize=12;image=img/lib/azure2/compute/Workspaces.svg;" vertex="1" parent="1">
          <mxGeometry x="417.5" y="450" width="65" height="56.00000000000001" as="geometry" />
        </mxCell>
        <mxCell id="E-pBfT4AqJcc3kO5NynL-43" value="程序员2" style="sketch=0;aspect=fixed;pointerEvents=1;shadow=0;dashed=0;html=1;strokeColor=none;labelPosition=center;verticalLabelPosition=bottom;verticalAlign=top;align=center;shape=mxgraph.mscae.enterprise.user_permissions;fillColor=#0078D7;" vertex="1" parent="1">
          <mxGeometry x="425.25" y="560" width="47" height="50" as="geometry" />
        </mxCell>
        <mxCell id="E-pBfT4AqJcc3kO5NynL-44" value="" style="image;points=[];aspect=fixed;html=1;align=center;shadow=0;dashed=0;image=img/lib/allied_telesis/computer_and_terminals/Personal_Computer.svg;" vertex="1" parent="1">
          <mxGeometry x="392.78" y="260" width="32.47" height="44" as="geometry" />
        </mxCell>
        <mxCell id="E-pBfT4AqJcc3kO5NynL-45" value="" style="endArrow=classic;html=1;rounded=0;exitX=0.769;exitY=-0.054;exitDx=0;exitDy=0;exitPerimeter=0;" edge="1" parent="1" source="E-pBfT4AqJcc3kO5NynL-42">
          <mxGeometry width="50" height="50" relative="1" as="geometry">
            <mxPoint x="467.5" y="440" as="sourcePoint" />
            <mxPoint x="467.5" y="380" as="targetPoint" />
          </mxGeometry>
        </mxCell>
        <mxCell id="E-pBfT4AqJcc3kO5NynL-46" value="&lt;font style=&quot;font-size: 14px;&quot;&gt;&lt;b&gt;Commit&lt;/b&gt;&lt;/font&gt;" style="edgeLabel;html=1;align=center;verticalAlign=middle;resizable=0;points=[];" vertex="1" connectable="0" parent="E-pBfT4AqJcc3kO5NynL-45">
          <mxGeometry x="0.0146" y="3" relative="1" as="geometry">
            <mxPoint x="18" y="-3" as="offset" />
          </mxGeometry>
        </mxCell>
        <mxCell id="E-pBfT4AqJcc3kO5NynL-48" style="edgeStyle=orthogonalEdgeStyle;rounded=0;orthogonalLoop=1;jettySize=auto;html=1;exitX=0.15;exitY=0.95;exitDx=0;exitDy=0;exitPerimeter=0;entryX=0.215;entryY=-0.018;entryDx=0;entryDy=0;entryPerimeter=0;" edge="1" parent="1" source="E-pBfT4AqJcc3kO5NynL-50" target="E-pBfT4AqJcc3kO5NynL-51">
          <mxGeometry relative="1" as="geometry" />
        </mxCell>
        <mxCell id="E-pBfT4AqJcc3kO5NynL-49" value="&lt;font style=&quot;font-size: 14px;&quot;&gt;&lt;b&gt;Checkout&lt;/b&gt;&lt;/font&gt;" style="edgeLabel;html=1;align=center;verticalAlign=middle;resizable=0;points=[];" vertex="1" connectable="0" parent="E-pBfT4AqJcc3kO5NynL-48">
          <mxGeometry x="-0.1666" y="1" relative="1" as="geometry">
            <mxPoint x="-23" as="offset" />
          </mxGeometry>
        </mxCell>
        <mxCell id="E-pBfT4AqJcc3kO5NynL-60" style="edgeStyle=orthogonalEdgeStyle;rounded=0;orthogonalLoop=1;jettySize=auto;html=1;exitX=0.5;exitY=0;exitDx=0;exitDy=0;entryX=1;entryY=0.7;entryDx=0;entryDy=0;curved=1;" edge="1" parent="1" source="E-pBfT4AqJcc3kO5NynL-50" target="E-pBfT4AqJcc3kO5NynL-1">
          <mxGeometry relative="1" as="geometry" />
        </mxCell>
        <mxCell id="E-pBfT4AqJcc3kO5NynL-62" value="Push" style="edgeLabel;html=1;align=center;verticalAlign=middle;resizable=0;points=[];fontSize=14;fontStyle=1" vertex="1" connectable="0" parent="E-pBfT4AqJcc3kO5NynL-60">
          <mxGeometry x="-0.3307" y="44" relative="1" as="geometry">
            <mxPoint x="1" as="offset" />
          </mxGeometry>
        </mxCell>
        <mxCell id="E-pBfT4AqJcc3kO5NynL-50" value="本地仓库" style="shape=datastore;whiteSpace=wrap;html=1;fillColor=#d5e8d4;strokeColor=#82b366;" vertex="1" parent="1">
          <mxGeometry x="722.5" y="320" width="60" height="60" as="geometry" />
        </mxCell>
        <mxCell id="E-pBfT4AqJcc3kO5NynL-51" value="工作区" style="image;aspect=fixed;html=1;points=[];align=center;fontSize=12;image=img/lib/azure2/compute/Workspaces.svg;" vertex="1" parent="1">
          <mxGeometry x="717.5" y="450" width="65" height="56.00000000000001" as="geometry" />
        </mxCell>
        <mxCell id="E-pBfT4AqJcc3kO5NynL-52" value="程序员3" style="sketch=0;aspect=fixed;pointerEvents=1;shadow=0;dashed=0;html=1;strokeColor=none;labelPosition=center;verticalLabelPosition=bottom;verticalAlign=top;align=center;shape=mxgraph.mscae.enterprise.user_permissions;fillColor=#0078D7;" vertex="1" parent="1">
          <mxGeometry x="725.25" y="560" width="47" height="50" as="geometry" />
        </mxCell>
        <mxCell id="E-pBfT4AqJcc3kO5NynL-53" value="" style="image;points=[];aspect=fixed;html=1;align=center;shadow=0;dashed=0;image=img/lib/allied_telesis/computer_and_terminals/Personal_Computer.svg;" vertex="1" parent="1">
          <mxGeometry x="692.78" y="260" width="32.47" height="44" as="geometry" />
        </mxCell>
        <mxCell id="E-pBfT4AqJcc3kO5NynL-54" value="" style="endArrow=classic;html=1;rounded=0;exitX=0.769;exitY=-0.054;exitDx=0;exitDy=0;exitPerimeter=0;" edge="1" parent="1" source="E-pBfT4AqJcc3kO5NynL-51">
          <mxGeometry width="50" height="50" relative="1" as="geometry">
            <mxPoint x="767.5" y="440" as="sourcePoint" />
            <mxPoint x="767.5" y="380" as="targetPoint" />
          </mxGeometry>
        </mxCell>
        <mxCell id="E-pBfT4AqJcc3kO5NynL-55" value="&lt;font style=&quot;font-size: 14px;&quot;&gt;&lt;b&gt;Commit&lt;/b&gt;&lt;/font&gt;" style="edgeLabel;html=1;align=center;verticalAlign=middle;resizable=0;points=[];" vertex="1" connectable="0" parent="E-pBfT4AqJcc3kO5NynL-54">
          <mxGeometry x="0.0146" y="3" relative="1" as="geometry">
            <mxPoint x="18" y="-3" as="offset" />
          </mxGeometry>
        </mxCell>
        <mxCell id="E-pBfT4AqJcc3kO5NynL-63" value="" style="ellipse;whiteSpace=wrap;html=1;" vertex="1" parent="1">
          <mxGeometry x="1070" y="610" width="120" height="80" as="geometry" />
        </mxCell>
        <mxCell id="E-pBfT4AqJcc3kO5NynL-64" value="" style="ellipse;whiteSpace=wrap;html=1;" vertex="1" parent="1">
          <mxGeometry x="1090" y="-320" width="120" height="80" as="geometry" />
        </mxCell>
      </root>
    </mxGraphModel>
  </diagram>
</mxfile>
